<?xml version="1.0" standalone="no"?>
<!DOCTYPE svg PUBLIC "-//W3C//DTD SVG 20010904//EN"
 "http://www.w3.org/TR/2001/REC-SVG-20010904/DTD/svg10.dtd">
<svg version="1.0" xmlns="http://www.w3.org/2000/svg"
 width="250.000000pt" height="250.000000pt" viewBox="0 0 250.000000 250.000000"
 preserveAspectRatio="xMidYMid meet">
<metadata>
Created by potrace 1.11, written by Peter Selinger 2001-2013
</metadata>
<g transform="translate(0.000000,250.000000) scale(0.100000,-0.100000)"
fill="#000000" stroke="none">
<path d="M364 2492 c4 -7 2 -12 -4 -12 -6 0 -8 -5 -4 -11 4 -7 -1 -7 -16 1
-17 9 -25 9 -34 0 -8 -8 -6 -10 9 -5 16 5 17 5 5 -3 -9 -7 -18 -7 -26 -1 -8 6
-16 3 -25 -8 -13 -17 -13 -17 6 -3 19 14 19 14 6 -3 -9 -12 -17 -15 -24 -8
-15 15 -70 -27 -63 -48 4 -11 1 -10 -10 4 -16 20 -16 20 -11 -2 3 -15 1 -20
-9 -16 -8 3 -14 0 -14 -7 0 -6 -4 -9 -8 -6 -4 2 -14 -5 -21 -17 -11 -18 -11
-20 0 -9 7 6 18 12 24 12 5 0 -2 -8 -18 -18 -15 -10 -24 -23 -20 -27 5 -5 -1
-3 -11 5 -11 8 -17 10 -13 3 4 -6 2 -15 -4 -18 -5 -4 -8 -14 -5 -22 5 -11 2
-13 -11 -9 -10 4 -14 4 -10 0 4 -4 1 -14 -6 -23 -11 -14 -10 -14 5 -2 28 21
21 5 -9 -25 -16 -15 -20 -22 -10 -15 21 17 22 1 1 -25 -8 -10 -12 -12 -8 -4 6
12 5 13 -7 2 -12 -11 -12 -14 1 -23 13 -8 12 -11 -4 -24 -11 -8 -15 -15 -8
-15 6 0 10 -13 9 -30 -1 -16 -6 -30 -11 -30 -5 0 -3 -6 3 -13 6 -8 8 -17 4
-20 -13 -14 -9 -102 7 -115 13 -12 13 -13 -2 -8 -13 4 -16 0 -12 -17 7 -28 7
-38 3 -57 -3 -9 2 -14 11 -12 11 3 11 -1 -3 -16 -17 -19 -23 -37 -9 -28 4 2 9
-5 9 -17 2 -17 0 -18 -7 -7 -7 11 -9 9 -8 -10 1 -14 5 -30 10 -37 5 -6 5 -14
-2 -18 -7 -4 -7 -12 0 -26 8 -14 7 -19 -1 -19 -8 0 -8 -4 -1 -13 7 -8 7 -18 2
-27 -11 -18 -3 -33 13 -23 7 3 4 -3 -6 -14 -17 -20 -23 -38 -9 -29 4 2 9 -5 9
-17 2 -17 0 -18 -7 -7 -7 11 -9 9 -8 -10 1 -14 5 -30 10 -37 5 -6 5 -14 -2
-18 -7 -4 -7 -12 0 -26 8 -14 7 -19 -1 -19 -8 0 -8 -4 -1 -13 7 -8 7 -18 2
-27 -11 -18 -3 -33 13 -23 7 3 4 -3 -5 -14 -18 -20 -24 -38 -10 -29 4 2 9 -5
9 -17 2 -17 0 -18 -7 -7 -7 11 -9 9 -8 -10 1 -14 5 -30 10 -37 5 -6 5 -14 -2
-18 -7 -4 -7 -12 0 -26 8 -14 7 -19 -1 -19 -8 0 -8 -4 -1 -13 7 -8 7 -18 2
-27 -11 -18 -3 -33 13 -23 7 3 4 -3 -6 -14 -17 -20 -23 -38 -9 -29 4 2 9 -5 9
-17 2 -17 0 -18 -7 -7 -7 11 -9 9 -8 -10 1 -14 5 -30 10 -37 5 -6 5 -14 -2
-18 -7 -4 -7 -12 0 -26 8 -14 7 -19 -1 -19 -8 0 -8 -4 -1 -13 7 -8 7 -18 2
-27 -11 -18 -3 -33 13 -23 7 3 4 -3 -6 -14 -17 -20 -23 -38 -9 -29 4 2 9 -5 9
-17 2 -17 0 -18 -7 -7 -7 11 -9 9 -8 -10 1 -14 5 -30 10 -37 5 -6 5 -14 -2
-18 -7 -4 -7 -12 0 -26 8 -14 7 -19 -1 -19 -8 0 -8 -4 -1 -13 7 -8 7 -18 2
-27 -11 -18 -3 -33 13 -23 7 3 4 -3 -6 -14 -17 -20 -23 -38 -9 -29 4 2 9 -5 9
-17 2 -15 0 -18 -6 -8 -6 9 -9 5 -9 -13 0 -15 5 -29 9 -32 5 -3 6 -11 2 -17
-10 -16 -12 -57 -2 -52 16 11 19 -30 3 -42 -14 -10 -15 -13 -3 -13 17 0 22
-51 6 -61 -5 -3 -1 -9 8 -12 9 -4 14 -3 11 1 -3 5 1 9 9 9 12 0 12 -4 -2 -20
-17 -19 -17 -20 -1 -14 13 4 15 2 11 -10 -4 -10 3 -23 18 -35 13 -11 18 -17
12 -13 -7 3 -13 2 -13 -4 0 -5 8 -12 18 -15 11 -4 25 -17 32 -31 7 -13 18 -21
24 -18 6 4 4 -2 -4 -13 -8 -10 -11 -16 -6 -12 4 3 23 -9 42 -29 29 -29 37 -33
49 -23 13 11 14 10 8 -6 -6 -17 -5 -17 10 -5 15 12 17 12 12 -2 -4 -8 -1 -18
6 -23 7 -4 10 -3 5 4 -11 18 23 7 39 -14 13 -16 14 -16 9 -1 -3 9 -1 17 5 17
10 0 15 -12 13 -30 0 -3 8 -6 19 -6 13 0 18 5 14 15 -4 11 0 10 15 -4 15 -14
20 -15 20 -4 0 12 2 12 9 0 6 -9 10 -10 16 -2 4 7 11 8 18 3 14 -10 1622 -10
1633 0 4 5 13 3 19 -2 9 -8 14 -6 19 5 5 14 9 14 33 -2 19 -13 25 -14 18 -4
-6 11 -4 13 9 8 10 -4 15 -3 11 3 -3 6 -1 10 5 10 6 0 8 5 4 12 -4 7 -3 8 5 4
6 -4 9 -12 6 -17 -3 -5 1 -6 9 -3 9 3 13 11 9 18 -4 7 -1 6 9 -2 12 -10 18
-10 28 2 6 9 9 19 6 24 -2 4 8 7 24 6 31 -2 67 27 55 45 -4 7 0 8 11 4 13 -5
15 -3 9 7 -6 10 -4 12 10 7 14 -6 17 -3 13 18 -4 20 -3 23 8 14 14 -11 19 -1
15 25 -1 5 4 6 12 3 7 -3 14 1 14 9 0 7 -5 11 -11 8 -6 -3 -3 1 8 10 11 9 16
21 12 32 -6 15 -4 15 10 3 16 -13 16 -12 4 11 -12 22 -12 24 3 12 13 -11 15
-10 10 9 -5 17 -3 20 8 14 11 -7 11 -5 -1 10 -8 10 -10 16 -3 12 15 -9 23 13
11 36 -6 11 -5 17 2 17 6 0 8 5 5 10 -4 6 -12 8 -18 4 -7 -3 -4 1 5 9 14 11
15 16 5 27 -7 7 -7 10 -2 7 7 -4 10 257 11 803 0 722 -2 807 -16 803 -13 -4
-13 -3 -1 5 24 17 19 104 -7 133 -14 14 -19 26 -13 32 6 6 4 15 -5 25 -8 8
-13 21 -10 29 4 9 -1 17 -13 20 -11 3 -22 12 -25 20 -3 8 -1 11 4 8 6 -3 10
-1 10 6 0 7 -10 9 -25 7 -20 -4 -23 -3 -14 8 9 11 7 14 -10 14 -12 0 -20 4
-16 9 8 14 -24 42 -38 34 -7 -4 -5 2 3 12 11 14 11 17 1 11 -8 -5 -16 -3 -21
5 -5 7 -15 14 -23 15 -31 4 -57 16 -57 25 0 5 -5 9 -11 9 -5 0 -8 -4 -4 -9 3
-5 1 -13 -5 -16 -6 -4 -10 -3 -9 2 5 27 -1 35 -16 23 -12 -10 -16 -9 -21 4 -5
14 -9 14 -22 4 -13 -11 -15 -10 -10 2 4 11 -1 15 -17 15 -15 0 -21 -5 -17 -14
4 -10 0 -10 -19 2 -16 11 -29 13 -39 7 -9 -5 -19 -5 -27 2 -9 7 -13 7 -13 -1
0 -8 -5 -9 -19 -1 -14 7 -22 7 -26 0 -4 -7 -12 -7 -18 -2 -7 5 -23 9 -37 10
-19 1 -21 -1 -10 -8 11 -7 10 -9 -7 -7 -12 0 -19 5 -17 9 9 14 -9 8 -29 -9
-11 -10 -17 -13 -14 -6 10 16 -5 24 -23 13 -9 -5 -19 -5 -27 2 -9 7 -13 7 -13
-1 0 -8 -5 -9 -19 -1 -14 7 -22 7 -26 0 -4 -7 -12 -7 -18 -2 -7 5 -23 9 -37
10 -19 1 -21 -1 -10 -8 11 -7 10 -9 -7 -7 -12 0 -19 5 -17 9 9 14 -9 8 -29 -9
-11 -10 -17 -13 -14 -6 10 16 -5 24 -23 13 -9 -5 -19 -5 -27 2 -9 7 -13 7 -13
-1 0 -8 -5 -9 -19 -1 -14 7 -22 7 -26 0 -4 -7 -12 -7 -18 -2 -7 5 -23 9 -37
10 -19 1 -21 -1 -10 -8 11 -7 10 -9 -7 -7 -12 0 -19 5 -17 9 9 14 -9 8 -29 -9
-11 -10 -17 -13 -14 -6 10 16 -5 24 -23 13 -9 -5 -19 -5 -27 2 -9 7 -13 7 -13
-1 0 -8 -5 -9 -19 -1 -14 7 -22 7 -26 0 -4 -7 -12 -7 -18 -2 -7 5 -23 9 -37
10 -19 1 -21 -1 -10 -8 11 -7 10 -9 -7 -7 -12 0 -19 5 -17 9 9 14 -9 8 -29 -9
-11 -10 -17 -13 -14 -6 10 16 -5 24 -23 13 -9 -5 -19 -5 -27 2 -9 7 -13 7 -13
-1 0 -8 -5 -9 -19 -1 -14 7 -22 7 -26 0 -4 -7 -12 -7 -18 -2 -7 5 -23 9 -37
10 -19 1 -21 -1 -10 -8 11 -7 10 -9 -7 -7 -12 0 -19 5 -17 9 9 14 -9 8 -29 -9
-11 -10 -17 -13 -14 -6 10 16 -5 24 -23 13 -9 -5 -19 -5 -27 2 -9 7 -13 7 -13
-1 0 -8 -5 -9 -19 -1 -14 7 -22 7 -26 0 -4 -7 -12 -7 -18 -2 -7 5 -23 9 -37
10 -19 1 -21 -1 -10 -8 11 -7 10 -9 -7 -7 -12 0 -19 5 -17 9 9 14 -9 8 -29 -9
-11 -10 -17 -13 -14 -6 10 16 -5 24 -23 13 -9 -5 -19 -5 -27 2 -9 7 -13 7 -13
-1 0 -8 -5 -9 -19 -1 -14 7 -22 7 -26 0 -4 -7 -11 -8 -18 -2 -14 12 -63 10
-74 -2 -5 -5 -1 -6 7 -1 8 5 12 4 7 -1 -10 -10 -58 -14 -51 -3 2 4 -1 11 -7
15 -8 4 -9 3 -5 -4z m-124 -67 c-7 -8 -17 -15 -23 -15 -6 0 -2 7 9 15 25 19
30 19 14 0z m2187 -167 c-3 -8 -6 -5 -6 6 -1 11 2 17 5 13 3 -3 4 -12 1 -19z
m-2233 -2164 c3 -8 2 -12 -4 -9 -6 3 -10 10 -10 16 0 14 7 11 14 -7z m2146 12
c0 -2 -6 -9 -14 -15 -11 -9 -16 -9 -22 0 -4 7 -3 9 4 5 6 -3 13 -2 17 4 6 10
15 14 15 6z"/>
<path d="M2465 2200 c3 -5 11 -10 16 -10 6 0 7 5 4 10 -3 6 -11 10 -16 10 -6
0 -7 -4 -4 -10z"/>
<path d="M5 400 c3 -5 8 -10 11 -10 2 0 4 5 4 10 0 6 -5 10 -11 10 -5 0 -7 -4
-4 -10z"/>
<path d="M100 160 c0 -5 5 -10 11 -10 5 0 7 5 4 10 -3 6 -8 10 -11 10 -2 0 -4
-4 -4 -10z"/>
</g>
</svg>
